<?xml version="1.0" standalone="no"?>
<!DOCTYPE svg PUBLIC "-//W3C//DTD SVG 20010904//EN"
 "http://www.w3.org/TR/2001/REC-SVG-20010904/DTD/svg10.dtd">
<svg version="1.0" xmlns="http://www.w3.org/2000/svg"
 width="643.000000pt" height="388.000000pt" viewBox="0 0 643.000000 388.000000"
 preserveAspectRatio="xMidYMid meet">

<g transform="translate(0.000000,388.000000) scale(0.100000,-0.100000)"
fill="#6B46C1" stroke="none">
<path d="M640 1985 l0 -755 125 0 125 0 0 25 0 25 -100 0 -100 0 0 705 0 705
2305 0 2305 0 0 -100 0 -100 25 0 25 0 0 125 0 125 -2355 0 -2355 0 0 -755z"/>
<path d="M3103 2473 l-2193 -3 -2 -593 c-2 -538 1 -828 7 -835 1 -2 1520 -2
4503 -2 l122 0 0 715 0 715 -79 0 c-43 0 -98 1 -122 3 -24 2 -1031 2 -2236 0z
m-755 -217 c5 -6 6 -196 0 -201 -3 -3 -216 -8 -245 -6 -10 1 -13 29 -13 105
l0 105 33 3 c51 5 218 0 225 -6z m-383 -116 l0 -105 -142 -3 -143 -3 0 -384 0
-384 -27 -3 c-16 -2 -77 -1 -138 2 l-110 5 -3 383 -2 382 -133 0 c-90 0 -137
4 -145 12 -13 13 -17 189 -5 201 3 4 196 6 427 5 l421 -3 0 -105z m769 94 c3
-9 6 -119 6 -245 l0 -229 48 0 47 1 71 122 70 122 137 3 c86 2 137 -1 137 -7
0 -13 -34 -75 -127 -230 l-74 -123 100 -184 c56 -101 101 -188 101 -194 0 -7
-45 -10 -136 -8 l-137 3 -44 80 c-25 44 -58 106 -75 138 -16 31 -33 57 -37 58
-3 0 -23 2 -43 5 l-37 3 -3 -142 -3 -142 -132 -3 -133 -3 0 489 c0 269 3 492
7 495 3 4 61 7 129 7 102 0 123 -3 128 -16z m834 -231 l2 -243 48 0 47 0 70
123 70 122 138 3 c96 2 137 -1 137 -9 0 -11 -11 -30 -135 -244 l-64 -110 23
-40 c65 -110 176 -319 176 -331 0 -19 -9 -19 -147 -14 l-127 5 -50 95 c-102
193 -96 185 -144 187 l-42 3 0 -145 0 -146 -132 3 -133 3 -3 480 c-1 264 0
486 3 493 3 9 36 12 132 10 l128 -3 3 -242z m830 -137 c1 -251 6 -384 13 -392
6 -7 34 -14 62 -16 l52 -3 3 -97 c3 -115 12 -108 -140 -111 -83 -1 -110 2
-138 17 -49 26 -69 45 -90 86 -23 45 -23 50 -21 513 l1 388 128 -3 127 -3 3
-379z m807 141 c53 -24 84 -53 106 -102 16 -34 19 -66 19 -207 l0 -168 -235 0
-235 0 0 -35 c0 -22 6 -37 18 -44 18 -9 174 -5 322 8 54 5 90 4 98 -2 9 -7 12
-35 10 -95 -4 -104 10 -97 -216 -109 -322 -17 -375 -10 -444 55 -52 48 -60 97
-56 344 2 187 6 228 20 253 32 56 64 83 123 104 54 19 78 21 245 18 150 -2
193 -6 225 -20z m-2855 -357 c3 -184 4 -347 2 -362 l-3 -27 -113 -3 c-63 -2
-121 -2 -130 0 -14 3 -16 31 -16 258 l0 254 -34 0 c-65 0 -66 2 -66 109 0 54
3 101 7 105 4 3 84 5 177 4 l171 -3 5 -335z"/>
<path d="M4867 1823 c-4 -3 -7 -28 -7 -55 l0 -48 105 0 105 0 0 36 c0 67 -10
74 -109 74 -48 0 -91 -3 -94 -7z"/>
</g>
</svg>
